<svg width="66" height="146" viewBox="0 0 66 146" fill="none" xmlns="http://www.w3.org/2000/svg">
<path d="M65.071 0.54545V146H34.3182V29.7358H33.4659L0.15625 50.6165V23.3438L36.1648 0.54545H65.071Z" fill="black"/>
<path d="M65.071 0.54545H70.071V-4.45455H65.071V0.54545ZM65.071 146V151H70.071V146H65.071ZM34.3182 146H29.3182V151H34.3182V146ZM34.3182 29.7358H39.3182V24.7358H34.3182V29.7358ZM33.4659 29.7358V24.7358H32.0283L30.8102 25.4994L33.4659 29.7358ZM0.15625 50.6165H-4.84375V59.652L2.81193 54.8529L0.15625 50.6165ZM0.15625 23.3438L-2.51842 19.1193L-4.84375 20.5915V23.3438H0.15625ZM36.1648 0.54545V-4.45455H34.715L33.4901 -3.67902L36.1648 0.54545ZM60.071 0.54545V146H70.071V0.54545H60.071ZM65.071 141H34.3182V151H65.071V141ZM39.3182 146V29.7358H29.3182V146H39.3182ZM34.3182 24.7358H33.4659V34.7358H34.3182V24.7358ZM30.8102 25.4994L-2.49943 46.38L2.81193 54.8529L36.1216 33.9722L30.8102 25.4994ZM5.15625 50.6165V23.3438H-4.84375V50.6165H5.15625ZM2.83092 27.5682L38.8394 4.76992L33.4901 -3.67902L-2.51842 19.1193L2.83092 27.5682ZM36.1648 5.54545H65.071V-4.45455H36.1648V5.54545Z" fill="#BBBBBB"/>
</svg>
