<svg width="216" height="152" viewBox="0 0 216 152" fill="none" xmlns="http://www.w3.org/2000/svg">
<path d="M65.071 2.54545V148H34.3182V31.7358H33.4659L0.15625 52.6165V25.3438L36.1648 2.54545H65.071ZM156.673 151.196C144.457 151.149 133.945 148.142 125.138 142.176C116.379 136.21 109.632 127.569 104.897 116.253C100.21 104.937 97.8894 91.3239 97.9368 75.4148C97.9368 59.553 100.281 46.035 104.968 34.8608C109.703 23.6865 116.45 15.1875 125.21 9.36364C134.016 3.49242 144.504 0.556813 156.673 0.556813C168.841 0.556813 179.305 3.49242 188.065 9.36364C196.871 15.2348 203.642 23.7576 208.377 34.9318C213.112 46.0587 215.456 59.553 215.408 75.4148C215.408 91.3712 213.041 105.008 208.306 116.324C203.619 127.64 196.895 136.281 188.136 142.247C179.376 148.213 168.888 151.196 156.673 151.196ZM156.673 125.699C165.006 125.699 171.658 121.509 176.63 113.128C181.602 104.747 184.064 92.1761 184.016 75.4148C184.016 64.3826 182.88 55.197 180.607 47.858C178.382 40.5189 175.21 35.0028 171.09 31.3097C167.018 27.6165 162.212 25.7699 156.673 25.7699C148.387 25.7699 141.758 29.9129 136.786 38.1989C131.815 46.4848 129.305 58.8901 129.258 75.4148C129.258 86.589 130.371 95.9167 132.596 103.398C134.869 110.831 138.065 116.419 142.184 120.159C146.303 123.852 151.133 125.699 156.673 125.699Z" fill="black"/>
<path d="M65.071 2.54545H70.071V-2.45455H65.071V2.54545ZM65.071 148V153H70.071V148H65.071ZM34.3182 148H29.3182V153H34.3182V148ZM34.3182 31.7358H39.3182V26.7358H34.3182V31.7358ZM33.4659 31.7358V26.7358H32.0283L30.8102 27.4994L33.4659 31.7358ZM0.15625 52.6165H-4.84375V61.652L2.81193 56.8529L0.15625 52.6165ZM0.15625 25.3438L-2.51842 21.1193L-4.84375 22.5915V25.3438H0.15625ZM36.1648 2.54545V-2.45455H34.715L33.4901 -1.67902L36.1648 2.54545ZM60.071 2.54545V148H70.071V2.54545H60.071ZM65.071 143H34.3182V153H65.071V143ZM39.3182 148V31.7358H29.3182V148H39.3182ZM34.3182 26.7358H33.4659V36.7358H34.3182V26.7358ZM30.8102 27.4994L-2.49943 48.38L2.81193 56.8529L36.1216 35.9722L30.8102 27.4994ZM5.15625 52.6165V25.3438H-4.84375V52.6165H5.15625ZM2.83092 29.5682L38.8394 6.76992L33.4901 -1.67902L-2.51842 21.1193L2.83092 29.5682ZM36.1648 7.54545H65.071V-2.45455H36.1648V7.54545ZM156.673 151.196L156.653 156.196L156.663 156.196H156.673V151.196ZM125.138 142.176L122.324 146.309L122.334 146.316L125.138 142.176ZM104.897 116.253L100.278 118.166L100.281 118.175L100.284 118.183L104.897 116.253ZM97.9368 75.4148L102.937 75.4296L102.937 75.4222V75.4148H97.9368ZM104.968 34.8608L100.364 32.91L100.361 32.9183L100.357 32.9266L104.968 34.8608ZM125.21 9.36364L127.978 13.5274L127.983 13.5239L125.21 9.36364ZM188.065 9.36364L185.281 13.517L185.291 13.5239L188.065 9.36364ZM208.377 34.9318L203.773 36.8826L203.776 36.8896L208.377 34.9318ZM215.408 75.4148L210.408 75.3998L210.408 75.4073V75.4148H215.408ZM208.306 116.324L203.694 114.394L203.69 114.402L203.687 114.41L208.306 116.324ZM188.136 142.247L190.95 146.38L190.95 146.38L188.136 142.247ZM176.63 113.128L180.93 115.679L180.93 115.679L176.63 113.128ZM184.016 75.4148L179.016 75.4148L179.016 75.4289L184.016 75.4148ZM180.607 47.858L175.822 49.3088L175.827 49.323L175.831 49.337L180.607 47.858ZM171.09 31.3097L167.731 35.0132L167.742 35.0229L167.752 35.0325L171.09 31.3097ZM136.786 38.1989L132.499 35.6264L132.499 35.6264L136.786 38.1989ZM129.258 75.4148L124.258 75.4004L124.258 75.4076V75.4148H129.258ZM132.596 103.398L127.803 104.823L127.809 104.841L127.814 104.86L132.596 103.398ZM142.184 120.159L138.823 123.861L138.834 123.871L138.846 123.882L142.184 120.159ZM156.692 146.196C145.317 146.152 135.81 143.366 127.943 138.037L122.334 146.316C132.081 152.918 143.596 156.145 156.653 156.196L156.692 146.196ZM127.953 138.044C120.113 132.704 113.931 124.89 109.51 114.323L100.284 118.183C105.333 130.248 112.645 139.716 122.324 146.309L127.953 138.044ZM109.516 114.339C105.145 103.787 102.891 90.8657 102.937 75.4296L92.9368 75.3999C92.8881 91.782 95.2736 106.086 100.278 118.166L109.516 114.339ZM102.937 75.4148C102.937 60.0219 105.214 47.1992 109.579 36.795L100.357 32.9266C95.3468 44.8709 92.9368 59.0842 92.9368 75.4148H102.937ZM109.572 36.8115C113.985 26.3965 120.153 18.7295 127.978 13.5273L122.441 5.19993C112.747 11.6454 105.421 20.9766 100.364 32.91L109.572 36.8115ZM127.983 13.5239C135.851 8.27882 145.339 5.55681 156.673 5.55681V-4.44319C143.669 -4.44319 132.182 -1.29398 122.436 5.20339L127.983 13.5239ZM156.673 5.55681C168.007 5.55681 177.466 8.27902 185.281 13.517L190.848 5.21031C181.144 -1.29418 169.676 -4.44319 156.673 -4.44319V5.55681ZM185.291 13.5239C193.171 18.777 199.362 26.4723 203.773 36.8826L212.981 32.9811C207.922 21.0428 200.572 11.6927 190.838 5.20339L185.291 13.5239ZM203.776 36.8896C208.177 47.231 210.454 60.0147 210.408 75.3998L220.408 75.4297C220.457 59.0913 218.047 44.8864 212.978 32.974L203.776 36.8896ZM210.408 75.4148C210.408 90.8986 208.108 103.843 203.694 114.394L212.919 118.254C217.974 106.172 220.408 91.8438 220.408 75.4148H210.408ZM203.687 114.41C199.312 124.971 193.156 132.778 185.321 138.115L190.95 146.38C200.634 139.784 207.925 130.31 212.925 118.237L203.687 114.41ZM185.321 138.115C177.513 143.433 168.042 146.196 156.673 146.196V156.196C169.735 156.196 181.239 152.994 190.95 146.38L185.321 138.115ZM156.673 130.699C167.099 130.699 175.239 125.273 180.93 115.679L172.33 110.577C168.078 117.744 162.913 120.699 156.673 120.699V130.699ZM180.93 115.679C186.585 106.146 189.065 92.4943 189.016 75.4006L179.016 75.4289C179.063 91.8579 176.618 103.348 172.33 110.577L180.93 115.679ZM189.016 75.4148C189.016 64.0799 187.854 54.3556 185.383 46.3789L175.831 49.337C177.906 56.0383 179.016 64.6852 179.016 75.4148H189.016ZM185.392 46.4071C182.999 38.5164 179.443 32.0827 174.428 27.5868L167.752 35.0325C170.976 37.9229 173.764 42.5215 175.822 49.3088L185.392 46.4071ZM174.449 27.6061C169.45 23.0715 163.444 20.7699 156.673 20.7699V30.7699C160.981 30.7699 164.587 32.1615 167.731 35.0132L174.449 27.6061ZM156.673 20.7699C146.311 20.7699 138.196 26.1304 132.499 35.6264L141.074 40.7713C145.319 33.6954 150.463 30.7699 156.673 30.7699V20.7699ZM132.499 35.6264C126.841 45.0563 124.306 58.5374 124.258 75.4004L134.258 75.4291C134.304 59.2429 136.788 47.9134 141.074 40.7713L132.499 35.6264ZM124.258 75.4148C124.258 86.8822 125.395 96.7276 127.803 104.823L137.388 101.972C135.346 95.1058 134.258 86.2958 134.258 75.4148H124.258ZM127.814 104.86C130.251 112.828 133.823 119.321 138.823 123.861L145.545 116.457C142.306 113.516 139.487 108.835 137.377 101.936L127.814 104.86ZM138.846 123.882C143.884 128.399 149.903 130.699 156.673 130.699V120.699C152.363 120.699 148.722 119.306 145.522 116.436L138.846 123.882Z" fill="#BBBBBB"/>
</svg>
