<svg width="106" height="148" viewBox="0 0 106 148" fill="none" xmlns="http://www.w3.org/2000/svg">
<path d="M1.78977 148V125.841L53.5653 77.9006C57.9688 73.6392 61.6619 69.804 64.6449 66.3949C67.6752 62.9858 69.9716 59.6477 71.5341 56.3807C73.0966 53.0663 73.8778 49.4915 73.8778 45.6562C73.8778 41.3949 72.9072 37.7254 70.9659 34.6477C69.0246 31.5227 66.3731 29.1316 63.0114 27.4744C59.6496 25.7699 55.8381 24.9176 51.5767 24.9176C47.1259 24.9176 43.2434 25.8172 39.929 27.6165C36.6146 29.4157 34.0578 31.9962 32.2585 35.358C30.4593 38.7197 29.5597 42.7206 29.5597 47.3608H0.369319C0.369319 37.8437 2.52367 29.5814 6.83239 22.5739C11.1411 15.5663 17.178 10.1449 24.9432 6.30965C32.7083 2.47443 41.6572 0.556813 51.7898 0.556813C62.2064 0.556813 71.2737 2.4034 78.9915 6.09659C86.7566 9.74242 92.7936 14.8087 97.1023 21.2955C101.411 27.7822 103.565 35.2159 103.565 43.5966C103.565 49.089 102.476 54.5104 100.298 59.8608C98.1676 65.2112 94.3561 71.1534 88.8636 77.6875C83.3712 84.1742 75.6297 91.9631 65.6392 101.054L44.4034 121.864V122.858H105.483V148H1.78977Z" fill="black"/>
<path d="M1.78977 148H-3.21023V153H1.78977V148ZM1.78977 125.841L-1.60727 122.172L-3.21023 123.656V125.841H1.78977ZM53.5653 77.9006L56.9624 81.5694L57.0028 81.5319L57.0425 81.4936L53.5653 77.9006ZM64.6449 66.3949L60.9078 63.0731L60.8949 63.0877L60.882 63.1024L64.6449 66.3949ZM71.5341 56.3807L76.0448 58.538L76.0508 58.5254L76.0567 58.5128L71.5341 56.3807ZM70.9659 34.6477L66.7187 37.2861L66.7278 37.3007L66.7369 37.3152L70.9659 34.6477ZM63.0114 27.4744L60.7502 31.9339L60.7753 31.9467L60.8006 31.9591L63.0114 27.4744ZM32.2585 35.358L36.6668 37.7173L36.6668 37.7173L32.2585 35.358ZM29.5597 47.3608V52.3608H34.5597V47.3608H29.5597ZM0.369319 47.3608H-4.63068V52.3608H0.369319V47.3608ZM6.83239 22.5739L11.0917 25.1927L11.0917 25.1927L6.83239 22.5739ZM24.9432 6.30965L22.729 1.82663L22.729 1.82663L24.9432 6.30965ZM78.9915 6.09659L76.8332 10.6068L76.8498 10.6147L76.8665 10.6226L78.9915 6.09659ZM97.1023 21.2955L92.9374 24.0619L92.9374 24.0619L97.1023 21.2955ZM100.298 59.8608L95.6673 57.9756L95.6601 57.9932L95.6531 58.0109L100.298 59.8608ZM88.8636 77.6875L92.6795 80.9185L92.6853 80.9116L92.6911 80.9048L88.8636 77.6875ZM65.6392 101.054L62.2741 97.3559L62.2057 97.4181L62.1397 97.4828L65.6392 101.054ZM44.4034 121.864L40.9039 118.292L39.4034 119.763V121.864H44.4034ZM44.4034 122.858H39.4034V127.858H44.4034V122.858ZM105.483 122.858H110.483V117.858H105.483V122.858ZM105.483 148V153H110.483V148H105.483ZM6.78977 148V125.841H-3.21023V148H6.78977ZM5.18681 129.51L56.9624 81.5694L50.1683 74.2318L-1.60727 122.172L5.18681 129.51ZM57.0425 81.4936C61.5132 77.1671 65.3085 73.2295 68.4078 69.6874L60.882 63.1024C58.0154 66.3785 54.4243 70.1113 50.0882 74.3076L57.0425 81.4936ZM68.3819 69.7167C71.6467 66.0439 74.2358 62.3203 76.0448 58.538L67.0234 54.2234C65.7074 56.9751 63.7037 59.9277 60.9078 63.0731L68.3819 69.7167ZM76.0567 58.5128C77.9483 54.5004 78.8778 50.1934 78.8778 45.6562H68.8778C68.8778 48.7895 68.2449 51.6322 67.0115 54.2486L76.0567 58.5128ZM78.8778 45.6562C78.8778 40.615 77.7209 35.9848 75.1949 31.9802L66.7369 37.3152C68.0935 39.4659 68.8778 42.1748 68.8778 45.6562H78.8778ZM75.2131 32.0093C72.7691 28.0751 69.4052 25.0518 65.2221 22.9897L60.8006 31.9591C63.341 33.2114 65.2801 34.9703 66.7187 37.2861L75.2131 32.0093ZM65.2725 23.0149C61.1232 20.911 56.5203 19.9176 51.5767 19.9176V29.9176C55.1558 29.9176 58.1761 30.6287 60.7502 31.9339L65.2725 23.0149ZM51.5767 19.9176C46.443 19.9176 41.7118 20.9594 37.5435 23.2222L42.3144 32.0107C44.775 30.675 47.8089 29.9176 51.5767 29.9176V19.9176ZM37.5435 23.2222C33.3605 25.493 30.105 28.7856 27.8502 32.9986L36.6668 37.7173C38.0105 35.2068 39.8687 33.3384 42.3144 32.0107L37.5435 23.2222ZM27.8502 32.9986C25.5868 37.2275 24.5597 42.0743 24.5597 47.3608H34.5597C34.5597 43.3669 35.3317 40.2119 36.6668 37.7173L27.8502 32.9986ZM29.5597 42.3608H0.369319V52.3608H29.5597V42.3608ZM5.36932 47.3608C5.36932 38.6207 7.3392 31.2956 11.0917 25.1927L2.57311 19.955C-2.29185 27.8672 -4.63068 37.0668 -4.63068 47.3608H5.36932ZM11.0917 25.1927C14.8811 19.0298 20.189 14.2343 27.1574 10.7927L22.729 1.82663C14.167 6.05543 7.40114 12.1028 2.57311 19.955L11.0917 25.1927ZM27.1574 10.7927C34.1261 7.35079 42.2951 5.55681 51.7898 5.55681V-4.44319C41.0193 -4.44319 31.2906 -2.40193 22.729 1.82663L27.1574 10.7927ZM51.7898 5.55681C61.619 5.55681 69.9197 7.29848 76.8332 10.6068L81.1497 1.58639C72.6276 -2.49167 62.7938 -4.44319 51.7898 -4.44319V5.55681ZM76.8665 10.6226C83.8903 13.9203 89.1854 18.4133 92.9374 24.0619L101.267 18.529C96.4018 11.2041 89.623 5.56454 81.1165 1.57062L76.8665 10.6226ZM92.9374 24.0619C96.6596 29.6657 98.5653 36.1216 98.5653 43.5966H108.565C108.565 34.3102 106.162 25.8987 101.267 18.529L92.9374 24.0619ZM98.5653 43.5966C98.5653 48.4096 97.6145 53.1924 95.6673 57.9756L104.929 61.746C107.338 55.8284 108.565 49.7685 108.565 43.5966H98.5653ZM95.6531 58.0109C93.7908 62.6872 90.3341 68.1676 85.0362 74.4702L92.6911 80.9048C98.378 74.1392 102.544 67.7351 104.944 61.7107L95.6531 58.0109ZM85.0478 74.4565C79.7519 80.7111 72.1859 88.3366 62.2741 97.3559L69.0043 104.752C79.0736 95.5895 86.9905 87.6374 92.6795 80.9185L85.0478 74.4565ZM62.1397 97.4828L40.9039 118.292L47.9029 125.435L69.1387 104.625L62.1397 97.4828ZM39.4034 121.864V122.858H49.4034V121.864H39.4034ZM44.4034 127.858H105.483V117.858H44.4034V127.858ZM100.483 122.858V148H110.483V122.858H100.483ZM105.483 143H1.78977V153H105.483V143Z" fill="#BBBBBB"/>
</svg>
