<svg width="112" height="150" viewBox="0 0 112 150" fill="none" xmlns="http://www.w3.org/2000/svg">
<path d="M55.554 149.989C44.9479 149.989 35.5019 148.166 27.2159 144.52C18.9773 140.827 12.4669 135.76 7.68466 129.321C2.94981 122.834 0.511364 115.353 0.369319 106.878H31.3352C31.5246 110.429 32.6847 113.554 34.8153 116.253C36.9934 118.904 39.8816 120.964 43.4801 122.432C47.0786 123.9 51.1269 124.634 55.625 124.634C60.3125 124.634 64.4555 123.805 68.054 122.148C71.6525 120.491 74.4697 118.194 76.5057 115.259C78.5417 112.323 79.5597 108.937 79.5597 105.102C79.5597 101.22 78.4706 97.7869 76.2926 94.804C74.1619 91.7737 71.0843 89.4062 67.0597 87.7017C63.0824 85.9972 58.3475 85.1449 52.8551 85.1449H39.2898V62.5597H52.8551C57.4953 62.5597 61.5909 61.7547 65.142 60.1449C68.7405 58.535 71.5341 56.3097 73.5227 53.4688C75.5114 50.5805 76.5057 47.2188 76.5057 43.3835C76.5057 39.7377 75.6297 36.5417 73.8778 33.7955C72.1733 31.0019 69.7585 28.8239 66.6335 27.2614C63.5559 25.6989 59.9574 24.9176 55.8381 24.9176C51.6714 24.9176 47.8598 25.6752 44.4034 27.1903C40.947 28.6581 38.1771 30.7651 36.0938 33.5114C34.0104 36.2576 32.8977 39.4773 32.7557 43.1705H3.28125C3.4233 34.7898 5.81439 27.4034 10.4545 21.0114C15.0947 14.6193 21.3447 9.62405 29.2045 6.02556C37.1117 2.37973 46.0369 0.556813 55.9801 0.556813C66.018 0.556813 74.8011 2.37973 82.3295 6.02556C89.858 9.6714 95.7055 14.5956 99.8722 20.7983C104.086 26.9536 106.17 33.8665 106.122 41.5369C106.17 49.6809 103.636 56.4754 98.5227 61.9205C93.4564 67.3655 86.8513 70.822 78.7074 72.2898V73.4261C89.4081 74.7992 97.5521 78.5161 103.139 84.5767C108.774 90.59 111.567 98.1184 111.52 107.162C111.567 115.448 109.176 122.811 104.347 129.25C99.5644 135.689 92.9593 140.756 84.5312 144.449C76.1032 148.142 66.4441 149.989 55.554 149.989Z" fill="black"/>
<path d="M27.2159 144.52L25.1706 149.082L25.1864 149.09L25.2022 149.096L27.2159 144.52ZM7.68466 129.321L3.64608 132.269L3.65824 132.286L3.67054 132.302L7.68466 129.321ZM0.369319 106.878V101.878H-4.71518L-4.62998 106.962L0.369319 106.878ZM31.3352 106.878L36.3281 106.612L36.0757 101.878H31.3352V106.878ZM34.8153 116.253L30.8909 119.351L30.921 119.389L30.9517 119.427L34.8153 116.253ZM43.4801 122.432L41.5917 127.061L41.5917 127.061L43.4801 122.432ZM68.054 122.148L65.9625 117.606L65.9625 117.606L68.054 122.148ZM76.5057 115.259L80.6143 118.108L80.6143 118.108L76.5057 115.259ZM76.2926 94.804L72.2025 97.6799L72.2282 97.7164L72.2545 97.7525L76.2926 94.804ZM67.0597 87.7017L65.0901 92.2974L65.0999 92.3016L65.1097 92.3058L67.0597 87.7017ZM39.2898 85.1449H34.2898V90.1449H39.2898V85.1449ZM39.2898 62.5597V57.5597H34.2898V62.5597H39.2898ZM65.142 60.1449L63.1002 55.5808L63.0889 55.5859L63.0776 55.591L65.142 60.1449ZM73.5227 53.4688L77.6189 56.3361L77.63 56.3202L77.641 56.3043L73.5227 53.4688ZM73.8778 33.7955L69.6096 36.3998L69.6357 36.4424L69.6625 36.4845L73.8778 33.7955ZM66.6335 27.2614L64.3701 31.7197L64.3837 31.7266L64.3975 31.7335L66.6335 27.2614ZM44.4034 27.1903L46.3578 31.7926L46.3844 31.7813L46.4108 31.7697L44.4034 27.1903ZM36.0938 33.5114L40.0772 36.5333L40.0772 36.5333L36.0938 33.5114ZM32.7557 43.1705V48.1705H37.5671L37.752 43.3626L32.7557 43.1705ZM3.28125 43.1705L-1.71803 43.0857L-1.80421 48.1705H3.28125V43.1705ZM10.4545 21.0114L14.5008 23.9487L14.5008 23.9487L10.4545 21.0114ZM29.2045 6.02556L31.2859 10.5718L31.2981 10.5662L29.2045 6.02556ZM82.3295 6.02556L84.5088 1.52548L84.5088 1.52548L82.3295 6.02556ZM99.8722 20.7983L95.7217 23.5864L95.734 23.6047L95.7464 23.6228L99.8722 20.7983ZM106.122 41.5369L101.122 41.5061L101.122 41.536L101.122 41.566L106.122 41.5369ZM98.5227 61.9205L94.878 58.4976L94.8701 58.506L94.8622 58.5145L98.5227 61.9205ZM78.7074 72.2898L77.8205 67.3691L73.7074 68.1104V72.2898H78.7074ZM78.7074 73.4261H73.7074V77.8255L78.071 78.3855L78.7074 73.4261ZM103.139 84.5767L99.463 87.9657L99.4768 87.9806L99.4906 87.9954L103.139 84.5767ZM111.52 107.162L106.52 107.136L106.52 107.163L106.52 107.191L111.52 107.162ZM104.347 129.25L100.347 126.25L100.34 126.259L100.332 126.269L104.347 129.25ZM84.5312 144.449L82.5245 139.869L82.5245 139.869L84.5312 144.449ZM55.554 144.989C45.5236 144.989 36.7815 143.266 29.2296 139.943L25.2022 149.096C34.2223 153.065 44.3722 154.989 55.554 154.989V144.989ZM29.2612 139.957C21.7035 136.569 15.9093 132.01 11.6988 126.34L3.67054 132.302C9.02437 139.511 16.251 145.084 25.1706 149.082L29.2612 139.957ZM11.7232 126.373C7.63106 120.767 5.4944 114.299 5.36862 106.794L-4.62998 106.962C-4.47167 116.407 -1.73144 124.902 3.64608 132.269L11.7232 126.373ZM0.369319 111.878H31.3352V101.878H0.369319V111.878ZM26.3423 107.144C26.5847 111.689 28.0971 115.812 30.8909 119.351L38.7398 113.155C37.2722 111.296 36.4645 109.169 36.3281 106.612L26.3423 107.144ZM30.9517 119.427C33.7235 122.801 37.3274 125.322 41.5917 127.061L45.3685 117.802C42.4359 116.606 40.2632 115.008 38.679 113.079L30.9517 119.427ZM41.5917 127.061C45.8765 128.809 50.5801 129.634 55.625 129.634V119.634C51.6737 119.634 48.2807 118.99 45.3685 117.802L41.5917 127.061ZM55.625 129.634C60.9038 129.634 65.7819 128.699 70.1455 126.689L65.9625 117.606C63.1291 118.911 59.7212 119.634 55.625 119.634V129.634ZM70.1455 126.689C74.4646 124.7 78.0151 121.856 80.6143 118.108L72.3971 112.409C70.9243 114.533 68.8403 116.281 65.9625 117.606L70.1455 126.689ZM80.6143 118.108C83.274 114.273 84.5597 109.877 84.5597 105.102H74.5597C74.5597 107.998 73.8093 110.373 72.3971 112.409L80.6143 118.108ZM84.5597 105.102C84.5597 100.218 83.1671 95.74 80.3307 91.8555L72.2545 97.7525C73.7742 99.8338 74.5597 102.222 74.5597 105.102H84.5597ZM80.3828 91.9281C77.6241 88.0046 73.7383 85.1003 69.0096 83.0976L65.1097 92.3058C68.4303 93.7122 70.6998 95.5428 72.2025 97.6799L80.3828 91.9281ZM69.0293 83.106C64.2863 81.0733 58.8491 80.1449 52.8551 80.1449V90.1449C57.846 90.1449 61.8785 90.921 65.0901 92.2974L69.0293 83.106ZM52.8551 80.1449H39.2898V90.1449H52.8551V80.1449ZM44.2898 85.1449V62.5597H34.2898V85.1449H44.2898ZM39.2898 67.5597H52.8551V57.5597H39.2898V67.5597ZM52.8551 67.5597C58.0739 67.5597 62.8954 66.6532 67.2065 64.6988L63.0776 55.591C60.2864 56.8563 56.9167 57.5597 52.8551 57.5597V67.5597ZM67.1839 64.709C71.4927 62.7813 75.0436 60.015 77.6189 56.3361L69.4266 50.6014C68.0246 52.6043 65.9884 54.2887 63.1002 55.5808L67.1839 64.709ZM77.641 56.3043C80.2577 52.5037 81.5057 48.1321 81.5057 43.3835H71.5057C71.5057 46.3054 70.765 48.6573 69.4045 50.6332L77.641 56.3043ZM81.5057 43.3835C81.5057 38.9021 80.4171 34.7493 78.0932 31.1064L69.6625 36.4845C70.8424 38.3341 71.5057 40.5733 71.5057 43.3835H81.5057ZM78.146 31.1911C75.9194 27.5419 72.7746 24.7417 68.8696 22.7892L64.3975 31.7335C66.7425 32.906 68.4272 34.4619 69.6096 36.3998L78.146 31.1911ZM68.897 22.803C64.9947 20.8218 60.5929 19.9176 55.8381 19.9176V29.9176C59.3218 29.9176 62.1171 30.5759 64.3701 31.7197L68.897 22.803ZM55.8381 19.9176C51.0527 19.9176 46.5484 20.7908 42.396 22.611L46.4108 31.7697C49.1713 30.5596 52.2901 29.9176 55.8381 29.9176V19.9176ZM42.449 22.5881C38.2639 24.3654 34.7671 26.9873 32.1103 30.4894L40.0772 36.5333C41.5871 34.543 43.6301 32.9509 46.3578 31.7926L42.449 22.5881ZM32.1103 30.4894C29.3615 34.1128 27.9378 38.3383 27.7594 42.9783L37.752 43.3626C37.8576 40.6162 38.6593 38.4024 40.0772 36.5333L32.1103 30.4894ZM32.7557 38.1705H3.28125V48.1705H32.7557V38.1705ZM8.28053 43.2552C8.40631 35.8342 10.5014 29.458 14.5008 23.9487L6.40828 18.0741C1.12737 25.3488 -1.55972 33.7453 -1.71803 43.0857L8.28053 43.2552ZM14.5008 23.9487C18.5885 18.3176 24.1328 13.8467 31.2859 10.5718L27.1232 1.47937C18.5566 5.40139 11.6009 10.921 6.40827 18.0741L14.5008 23.9487ZM31.2981 10.5662C38.4617 7.26317 46.6573 5.55681 55.9801 5.55681V-4.44319C45.4166 -4.44319 35.7618 -2.50371 27.111 1.48497L31.2981 10.5662ZM55.9801 5.55681C65.4122 5.55681 73.4238 7.26815 80.1503 10.5256L84.5088 1.52548C76.1785 -2.50869 66.6237 -4.44319 55.9801 -4.44319V5.55681ZM80.1503 10.5256C86.979 13.8326 92.1059 18.2038 95.7217 23.5864L104.023 18.0102C99.3051 10.9875 92.7369 5.51016 84.5088 1.52548L80.1503 10.5256ZM95.7464 23.6228C99.3679 28.9126 101.164 34.8235 101.122 41.5061L111.122 41.5678C111.176 32.9094 108.804 24.9946 103.998 17.9737L95.7464 23.6228ZM101.122 41.566C101.163 48.5546 99.0312 54.0752 94.878 58.4976L102.167 65.3433C108.241 58.8756 111.176 50.8072 111.122 41.5079L101.122 41.566ZM94.8622 58.5145C90.6151 63.0792 85.0265 66.0703 77.8205 67.3691L79.5943 77.2105C88.6762 75.5736 96.2978 71.6519 102.183 65.3264L94.8622 58.5145ZM73.7074 72.2898V73.4261H83.7074V72.2898H73.7074ZM78.071 78.3855C87.9706 79.6558 94.8912 83.0065 99.463 87.9657L106.815 81.1877C100.213 74.0257 90.8457 69.9427 79.3438 68.4668L78.071 78.3855ZM99.4906 87.9954C104.162 92.9808 106.561 99.2352 106.52 107.136L116.52 107.188C116.573 97.0016 113.385 88.1991 106.788 81.158L99.4906 87.9954ZM106.52 107.191C106.561 114.419 104.501 120.711 100.347 126.25L108.347 132.25C113.852 124.91 116.573 116.476 116.52 107.133L106.52 107.191ZM100.332 126.269C96.1412 131.913 90.2746 136.473 82.5245 139.869L86.538 149.028C95.6439 145.038 102.988 139.466 108.361 132.231L100.332 126.269ZM82.5245 139.869C74.8343 143.239 65.8783 144.989 55.554 144.989V154.989C67.01 154.989 77.3721 153.045 86.538 149.028L82.5245 139.869Z" fill="#BBBBBB"/>
</svg>
