<svg width="118" height="146" viewBox="0 0 118 146" fill="none" xmlns="http://www.w3.org/2000/svg">
<path d="M0.588069 120.432V96.2131L61.3125 0.54545H82.1932V34.0682H69.8352L31.554 94.6506V95.7869H117.847V120.432H0.588069ZM70.4034 146V113.045L70.9716 102.321V0.54545H99.8068V146H70.4034Z" fill="black"/>
<path d="M0.588069 120.432H-4.41193V125.432H0.588069V120.432ZM0.588069 96.2131L-3.63333 93.5336L-4.41193 94.7602V96.2131H0.588069ZM61.3125 0.54545V-4.45455H58.564L57.0911 -2.13406L61.3125 0.54545ZM82.1932 0.54545H87.1932V-4.45455H82.1932V0.54545ZM82.1932 34.0682V39.0682H87.1932V34.0682H82.1932ZM69.8352 34.0682V29.0682H67.0801L65.6084 31.3973L69.8352 34.0682ZM31.554 94.6506L27.3271 91.9797L26.554 93.2032V94.6506H31.554ZM31.554 95.7869H26.554V100.787H31.554V95.7869ZM117.847 95.7869H122.847V90.7869H117.847V95.7869ZM117.847 120.432V125.432H122.847V120.432H117.847ZM70.4034 146H65.4034V151H70.4034V146ZM70.4034 113.045L65.4104 112.781L65.4034 112.913V113.045H70.4034ZM70.9716 102.321L75.9646 102.586L75.9716 102.453V102.321H70.9716ZM70.9716 0.54545V-4.45455H65.9716V0.54545H70.9716ZM99.8068 0.54545H104.807V-4.45455H99.8068V0.54545ZM99.8068 146V151H104.807V146H99.8068ZM5.58807 120.432V96.2131H-4.41193V120.432H5.58807ZM4.80947 98.8926L65.5339 3.22496L57.0911 -2.13406L-3.63333 93.5336L4.80947 98.8926ZM61.3125 5.54545H82.1932V-4.45455H61.3125V5.54545ZM77.1932 0.54545V34.0682H87.1932V0.54545H77.1932ZM82.1932 29.0682H69.8352V39.0682H82.1932V29.0682ZM65.6084 31.3973L27.3271 91.9797L35.7808 97.3215L74.0621 36.7391L65.6084 31.3973ZM26.554 94.6506V95.7869H36.554V94.6506H26.554ZM31.554 100.787H117.847V90.7869H31.554V100.787ZM112.847 95.7869V120.432H122.847V95.7869H112.847ZM117.847 115.432H0.588069V125.432H117.847V115.432ZM75.4034 146V113.045H65.4034V146H75.4034ZM75.3964 113.31L75.9646 102.586L65.9786 102.056L65.4104 112.781L75.3964 113.31ZM75.9716 102.321V0.54545H65.9716V102.321H75.9716ZM70.9716 5.54545H99.8068V-4.45455H70.9716V5.54545ZM94.8068 0.54545V146H104.807V0.54545H94.8068ZM99.8068 141H70.4034V151H99.8068V141Z" fill="#BBBBBB"/>
</svg>
