<svg width="108" height="148" viewBox="0 0 108 148" fill="none" xmlns="http://www.w3.org/2000/svg">
<path d="M52.9148 147.989C42.8769 147.989 33.928 146.142 26.0682 142.449C18.2557 138.756 12.053 133.666 7.46023 127.179C2.86742 120.692 0.476326 113.259 0.286932 104.878H30.1165C30.4479 110.512 32.8153 115.081 37.2188 118.585C41.6222 122.089 46.8542 123.841 52.9148 123.841C57.7443 123.841 62.0057 122.776 65.6989 120.645C69.4394 118.467 72.3513 115.46 74.4347 111.625C76.5653 107.742 77.6307 103.292 77.6307 98.2727C77.6307 93.1591 76.5417 88.661 74.3636 84.7784C72.233 80.8958 69.2737 77.8655 65.4858 75.6875C61.6979 73.5095 57.3655 72.3968 52.4886 72.3494C48.2273 72.3494 44.0843 73.2254 40.0597 74.9773C36.0824 76.7292 32.9811 79.1203 30.7557 82.1506L3.41193 77.25L10.3011 0.54545H99.2216V25.6875H35.6562L31.892 62.1222H32.7443C35.3011 58.5237 39.16 55.5407 44.321 53.1733C49.482 50.8059 55.2585 49.6222 61.6506 49.6222C70.41 49.6222 78.2225 51.6818 85.0881 55.8011C91.9536 59.9205 97.375 65.5786 101.352 72.7756C105.33 79.9252 107.295 88.1638 107.247 97.4915C107.295 107.293 105.022 116.005 100.429 123.628C95.8835 131.204 89.5152 137.17 81.3239 141.526C73.1799 145.834 63.7102 147.989 52.9148 147.989Z" fill="black"/>
<path d="M26.0682 142.449L23.9313 146.969L23.9418 146.974L26.0682 142.449ZM7.46023 127.179L11.5409 124.29L11.5409 124.29L7.46023 127.179ZM0.286932 104.878V99.8778H-4.82734L-4.71179 104.991L0.286932 104.878ZM30.1165 104.878L35.1078 104.584L34.831 99.8778H30.1165V104.878ZM37.2188 118.585L40.332 114.673L40.332 114.673L37.2188 118.585ZM65.6989 120.645L68.1975 124.976L68.2062 124.971L68.2148 124.966L65.6989 120.645ZM74.4347 111.625L70.0513 109.22L70.0462 109.229L70.041 109.238L74.4347 111.625ZM74.3636 84.7784L69.9803 87.1839L69.9915 87.2043L70.0029 87.2247L74.3636 84.7784ZM65.4858 75.6875L62.9934 80.022L62.9934 80.022L65.4858 75.6875ZM52.4886 72.3494L52.5372 67.3497L52.5129 67.3494H52.4886V72.3494ZM40.0597 74.9773L38.0641 70.3928L38.0541 70.3971L38.0441 70.4015L40.0597 74.9773ZM30.7557 82.1506L29.8736 87.0722L32.9411 87.6219L34.7857 85.1101L30.7557 82.1506ZM3.41193 77.25L-1.56802 76.8027L-1.97767 81.3637L2.52988 82.1716L3.41193 77.25ZM10.3011 0.54545V-4.45455H5.73009L5.32118 0.0981765L10.3011 0.54545ZM99.2216 0.54545H104.222V-4.45455H99.2216V0.54545ZM99.2216 25.6875V30.6875H104.222V25.6875H99.2216ZM35.6562 25.6875V20.6875H31.1462L30.6827 25.1737L35.6562 25.6875ZM31.892 62.1222L26.9185 61.6083L26.3489 67.1222H31.892V62.1222ZM32.7443 62.1222V67.1222H35.3253L36.8202 65.0182L32.7443 62.1222ZM44.321 53.1733L46.4057 57.718L46.4057 57.718L44.321 53.1733ZM85.0881 55.8011L87.6605 51.5137L87.6605 51.5137L85.0881 55.8011ZM101.352 72.7756L96.9761 75.194L96.9829 75.2062L101.352 72.7756ZM107.247 97.4915L102.247 97.4661L102.247 97.4909L102.247 97.5156L107.247 97.4915ZM100.429 123.628L96.1462 121.048L96.1415 121.055L100.429 123.628ZM81.3239 141.526L83.6621 145.945L83.6715 145.94L81.3239 141.526ZM52.9148 142.989C43.4977 142.989 35.293 141.259 28.1945 137.924L23.9418 146.974C32.5631 151.025 42.256 152.989 52.9148 152.989V142.989ZM28.2051 137.929C21.1002 134.57 15.5941 130.014 11.5409 124.29L3.37952 130.068C8.51197 137.317 15.4111 142.942 23.9313 146.969L28.2051 137.929ZM11.5409 124.29C7.55631 118.662 5.45384 112.207 5.28566 104.765L-4.71179 104.991C-4.50118 114.31 -1.82146 122.723 3.37952 130.068L11.5409 124.29ZM0.286932 109.878H30.1165V99.8778H0.286932V109.878ZM25.1251 105.171C25.5397 112.219 28.5865 118.106 34.1055 122.498L40.332 114.673C37.0442 112.057 35.3561 108.805 35.1078 104.584L25.1251 105.171ZM34.1055 122.498C39.4641 126.762 45.8165 128.841 52.9148 128.841V118.841C47.8919 118.841 43.7802 117.416 40.332 114.673L34.1055 122.498ZM52.9148 128.841C58.5029 128.841 63.648 127.6 68.1975 124.976L63.2003 116.314C60.3633 117.951 56.9857 118.841 52.9148 118.841V128.841ZM68.2148 124.966C72.7535 122.323 76.3118 118.644 78.8283 114.012L70.041 109.238C68.3909 112.276 66.1253 114.611 63.1829 116.324L68.2148 124.966ZM78.818 114.03C81.4046 109.317 82.6307 104.019 82.6307 98.2727H72.6307C72.6307 102.564 71.7261 106.168 70.0513 109.22L78.818 114.03ZM82.6307 98.2727C82.6307 92.4313 81.3804 87.0668 78.7244 82.3321L70.0029 87.2247C71.703 90.2552 72.6307 93.8869 72.6307 98.2727H82.6307ZM78.747 82.3729C76.1812 77.6975 72.5727 73.9949 67.9782 71.353L62.9934 80.022C65.9746 81.7362 68.2847 84.0941 69.9803 87.1839L78.747 82.3729ZM67.9782 71.353C63.3628 68.6991 58.1705 67.4044 52.5372 67.3497L52.4401 77.3492C56.5606 77.3892 60.0331 78.3198 62.9934 80.022L67.9782 71.353ZM52.4886 67.3494C47.5198 67.3494 42.6989 68.3753 38.0641 70.3928L42.0553 79.5618C45.4697 78.0755 48.9348 77.3494 52.4886 77.3494V67.3494ZM38.0441 70.4015C33.3919 72.4507 29.5455 75.3512 26.7257 79.191L34.7857 85.1101C36.4166 82.8893 38.7728 81.0076 42.0752 79.553L38.0441 70.4015ZM31.6377 77.229L4.29398 72.3284L2.52988 82.1716L29.8736 87.0722L31.6377 77.229ZM8.39189 77.6973L15.2811 0.992724L5.32118 0.0981765L-1.56802 76.8027L8.39189 77.6973ZM10.3011 5.54545H99.2216V-4.45455H10.3011V5.54545ZM94.2216 0.54545V25.6875H104.222V0.54545H94.2216ZM99.2216 20.6875H35.6562V30.6875H99.2216V20.6875ZM30.6827 25.1737L26.9185 61.6083L36.8656 62.636L40.6298 26.2013L30.6827 25.1737ZM31.892 67.1222H32.7443V57.1222H31.892V67.1222ZM36.8202 65.0182C38.7438 62.3109 41.8183 59.8223 46.4057 57.718L42.2363 48.6286C36.5018 51.2591 31.8585 54.7364 28.6684 59.2261L36.8202 65.0182ZM46.4057 57.718C50.8349 55.6862 55.8873 54.6222 61.6506 54.6222V44.6222C54.6297 44.6222 48.1291 45.9255 42.2363 48.6286L46.4057 57.718ZM61.6506 54.6222C69.5918 54.6222 76.4993 56.4788 82.5156 60.0886L87.6605 51.5137C79.9458 46.8848 71.2283 44.6222 61.6506 44.6222V54.6222ZM82.5156 60.0886C88.6046 63.742 93.4128 68.7463 96.9761 75.194L105.728 70.3571C101.337 62.4109 95.3026 56.0989 87.6605 51.5137L82.5156 60.0886ZM96.9829 75.2062C100.487 81.505 102.291 88.8756 102.247 97.4661L112.247 97.5169C112.298 87.4521 110.172 78.3454 105.722 70.3449L96.9829 75.2062ZM102.247 97.5156C102.291 106.495 100.218 114.289 96.1462 121.048L104.712 126.208C109.825 117.721 112.298 108.09 112.247 97.4673L102.247 97.5156ZM96.1415 121.055C92.0872 127.813 86.4076 133.159 78.9762 137.111L83.6715 145.94C92.6228 141.18 99.6798 134.595 104.716 126.2L96.1415 121.055ZM78.9856 137.106C71.6766 140.973 63.0353 142.989 52.9148 142.989V152.989C64.3852 152.989 74.6833 150.696 83.6621 145.945L78.9856 137.106Z" fill="#BBBBBB"/>
</svg>
