<svg width="114" height="151" viewBox="0 0 114 151" fill="none" xmlns="http://www.w3.org/2000/svg">
<path d="M58.6136 149.989C51.1326 149.941 43.9119 148.687 36.9517 146.224C30.0388 143.762 23.8362 139.761 18.3438 134.222C12.8513 128.682 8.49527 121.343 5.27557 112.205C2.10322 103.066 0.517046 91.8447 0.517046 78.5398C0.564395 66.3239 1.96117 55.41 4.70739 45.7983C7.50095 36.1392 11.4782 27.9479 16.6392 21.2244C21.8475 14.5009 28.0739 9.3873 35.3182 5.88351C42.5625 2.33238 50.6828 0.556813 59.679 0.556813C69.3854 0.556813 77.9555 2.45075 85.3892 6.23864C92.8229 9.97916 98.7888 15.0691 103.287 21.5085C107.832 27.9479 110.579 35.1686 111.526 43.1705H81.1989C80.0152 38.1042 77.5294 34.1269 73.7415 31.2386C69.9536 28.3504 65.2661 26.9062 59.679 26.9062C50.2093 26.9062 43.0123 31.0256 38.0881 39.2642C33.2112 47.5028 30.7254 58.7008 30.6307 72.858H31.625C33.803 68.5492 36.7386 64.8797 40.4318 61.8494C44.1723 58.7718 48.41 56.428 53.1449 54.8182C57.9271 53.161 62.9697 52.3324 68.2727 52.3324C76.8902 52.3324 84.5606 54.3684 91.2841 58.4403C98.0076 62.465 103.311 68.0047 107.193 75.0597C111.076 82.1146 113.017 90.1875 113.017 99.2784C113.017 109.127 110.721 117.886 106.128 125.557C101.582 133.227 95.214 139.241 87.0227 143.597C78.8788 147.905 69.4091 150.036 58.6136 149.989ZM58.4716 125.841C63.2064 125.841 67.4441 124.705 71.1847 122.432C74.9252 120.159 77.8608 117.081 79.9915 113.199C82.1222 109.316 83.1875 104.96 83.1875 100.131C83.1875 95.3011 82.1222 90.9687 79.9915 87.1335C77.9081 83.2983 75.0199 80.2443 71.3267 77.9716C67.6335 75.6989 63.4195 74.5625 58.6847 74.5625C55.1335 74.5625 51.8428 75.2254 48.8125 76.5511C45.8295 77.8769 43.2017 79.7235 40.929 82.0909C38.7036 84.4583 36.9517 87.2045 35.6733 90.3295C34.3949 93.4072 33.7557 96.6979 33.7557 100.202C33.7557 104.889 34.821 109.174 36.9517 113.057C39.1297 116.939 42.0653 120.041 45.7585 122.361C49.4991 124.681 53.7367 125.841 58.4716 125.841Z" fill="black"/>
<path d="M58.6136 149.989L58.582 154.989L58.5917 154.989L58.6136 149.989ZM36.9517 146.224L35.2741 150.935L35.2843 150.938L36.9517 146.224ZM18.3438 134.222L14.7931 137.742L14.7931 137.742L18.3438 134.222ZM5.27557 112.205L0.552095 113.844L0.55588 113.855L0.559715 113.866L5.27557 112.205ZM0.517046 78.5398L-4.48292 78.5204L-4.48295 78.5301V78.5398H0.517046ZM4.70739 45.7983L-0.0957648 44.4091L-0.0980111 44.4169L-0.100232 44.4247L4.70739 45.7983ZM16.6392 21.2244L12.6865 18.1624L12.6797 18.1712L12.673 18.1799L16.6392 21.2244ZM35.3182 5.88351L37.4952 10.3847L37.5071 10.3789L37.519 10.3731L35.3182 5.88351ZM85.3892 6.23864L83.1192 10.6936L83.1304 10.6994L83.1418 10.7051L85.3892 6.23864ZM103.287 21.5085L99.1879 24.3718L99.195 24.3819L99.2021 24.3919L103.287 21.5085ZM111.526 43.1705V48.1705H117.152L116.491 42.5828L111.526 43.1705ZM81.1989 43.1705L76.33 44.308L77.2324 48.1705H81.1989V43.1705ZM38.0881 39.2642L33.7963 36.699L33.7908 36.7081L33.7854 36.7172L38.0881 39.2642ZM30.6307 72.858L25.6308 72.8245L25.5971 77.858H30.6307V72.858ZM31.625 72.858V77.858H34.7L36.0873 75.1136L31.625 72.858ZM40.4318 61.8494L43.6034 65.7148L43.6086 65.7105L40.4318 61.8494ZM53.1449 54.8182L54.7544 59.552L54.7682 59.5473L54.782 59.5426L53.1449 54.8182ZM91.2841 58.4403L88.6939 62.7171L88.705 62.7238L88.7161 62.7305L91.2841 58.4403ZM106.128 125.557L101.838 122.988L101.832 122.998L101.826 123.008L106.128 125.557ZM87.0227 143.597L89.361 148.016L89.3704 148.011L87.0227 143.597ZM71.1847 122.432L73.781 126.705L73.781 126.705L71.1847 122.432ZM79.9915 113.199L84.3748 115.604L84.3748 115.604L79.9915 113.199ZM79.9915 87.1335L75.5979 89.5202L75.6092 89.541L75.6207 89.5617L79.9915 87.1335ZM71.3267 77.9716L73.9472 73.7133L73.9472 73.7133L71.3267 77.9716ZM48.8125 76.5511L46.8084 71.9703L46.7951 71.9762L46.7818 71.9821L48.8125 76.5511ZM40.929 82.0909L37.322 78.6282L37.3038 78.6472L37.2858 78.6664L40.929 82.0909ZM35.6733 90.3295L40.2908 92.2476L40.2959 92.2352L40.301 92.2227L35.6733 90.3295ZM36.9517 113.057L32.5684 115.462L32.5796 115.483L32.591 115.503L36.9517 113.057ZM45.7585 122.361L43.0988 126.595L43.1109 126.602L43.123 126.61L45.7585 122.361ZM58.6453 144.989C51.7141 144.945 45.0468 143.784 38.6192 141.511L35.2843 150.938C42.7771 153.589 50.5511 154.938 58.582 154.989L58.6453 144.989ZM38.6293 141.514C32.4661 139.319 26.8935 135.743 21.8944 130.701L14.7931 137.742C20.7789 143.779 27.6115 148.205 35.2741 150.935L38.6293 141.514ZM21.8944 130.701C17.0336 125.799 13.0232 119.148 9.99142 110.543L0.559715 113.866C3.96734 123.538 8.66901 131.565 14.7931 137.742L21.8944 130.701ZM9.99904 110.565C7.06416 102.111 5.51705 91.4809 5.51705 78.5398H-4.48295C-4.48295 92.2085 -2.85772 104.022 0.552095 113.844L9.99904 110.565ZM5.51701 78.5591C5.56296 66.7038 6.91888 56.2584 9.51501 47.1719L-0.100232 44.4247C-2.99653 54.5617 -4.43417 65.9439 -4.48292 78.5204L5.51701 78.5591ZM9.51054 47.1874C12.1624 38.0182 15.8878 30.4148 20.6054 24.2689L12.673 18.1799C7.0686 25.481 2.83947 34.2602 -0.0957648 44.4091L9.51054 47.1874ZM20.592 24.2864C25.355 18.1377 30.9855 13.5332 37.4952 10.3847L33.1411 1.38235C25.1623 5.24141 18.34 10.8642 12.6865 18.1624L20.592 24.2864ZM37.519 10.3731C44.0028 7.19476 51.357 5.55681 59.679 5.55681V-4.44319C50.0085 -4.44319 41.1222 -2.53 33.1174 1.39391L37.519 10.3731ZM59.679 5.55681C68.7253 5.55681 76.4951 7.3183 83.1192 10.6936L87.6593 1.78366C79.4159 -2.41679 70.0455 -4.44319 59.679 -4.44319V5.55681ZM83.1418 10.7051C89.8804 14.0958 95.1929 18.6525 99.1879 24.3718L107.386 18.6453C102.385 11.4857 95.7655 5.8625 87.6366 1.7722L83.1418 10.7051ZM99.2021 24.3919C103.256 30.1357 105.709 36.5636 106.56 43.7581L116.491 42.5828C115.448 33.7735 112.408 25.7602 107.372 18.6251L99.2021 24.3919ZM111.526 38.1705H81.1989V48.1705H111.526V38.1705ZM86.0677 42.0329C84.6459 35.9474 81.5717 30.9215 76.7732 27.2626L70.7098 35.2147C73.487 37.3323 75.3844 40.2609 76.33 44.308L86.0677 42.0329ZM76.7732 27.2626C71.9698 23.6001 66.165 21.9062 59.679 21.9062V31.9062C64.3672 31.9062 67.9374 33.1007 70.7098 35.2147L76.7732 27.2626ZM59.679 21.9062C48.4208 21.9062 39.608 26.9754 33.7963 36.699L42.3799 41.8294C46.4166 35.0757 51.9978 31.9062 59.679 31.9062V21.9062ZM33.7854 36.7172C28.2922 45.9971 25.7288 58.1772 25.6308 72.8245L35.6306 72.8914C35.722 59.2243 38.1302 49.0086 42.3907 41.8112L33.7854 36.7172ZM30.6307 77.858H31.625V67.858H30.6307V77.858ZM36.0873 75.1136C37.9551 71.4186 40.4535 68.2993 43.6034 65.7148L37.2602 57.9841C33.0237 61.4602 29.651 65.6799 27.1627 70.6023L36.0873 75.1136ZM43.6086 65.7105C46.8685 63.0283 50.5715 60.9742 54.7544 59.552L51.5354 50.0843C46.2486 51.8818 41.4762 54.5152 37.255 57.9884L43.6086 65.7105ZM54.782 59.5426C59.0129 58.0764 63.5001 57.3324 68.2727 57.3324V47.3324C62.4393 47.3324 56.8413 48.2455 51.5077 50.0938L54.782 59.5426ZM68.2727 57.3324C76.0677 57.3324 82.8258 59.1632 88.6939 62.7171L93.8743 54.1635C86.2954 49.5735 77.7126 47.3324 68.2727 47.3324V57.3324ZM88.7161 62.7305C94.6579 66.2872 99.3448 71.1689 102.813 77.4704L111.574 72.6489C107.276 64.8406 101.357 58.6427 93.8521 54.1502L88.7161 62.7305ZM102.813 77.4704C106.239 83.6958 108.017 90.9201 108.017 99.2784H118.017C118.017 89.4549 115.913 80.5334 111.574 72.6489L102.813 77.4704ZM108.017 99.2784C108.017 108.317 105.92 116.171 101.838 122.988L110.418 128.125C115.522 119.601 118.017 109.937 118.017 99.2784H108.017ZM101.826 123.008C97.7682 129.856 92.0907 135.238 84.6751 139.182L89.3704 148.011C98.3374 143.243 105.397 136.599 110.429 128.106L101.826 123.008ZM84.6845 139.177C77.3831 143.04 68.75 145.033 58.6356 144.989L58.5917 154.989C70.0681 155.039 80.3745 152.771 89.361 148.016L84.6845 139.177ZM58.4716 130.841C64.0445 130.841 69.1941 129.492 73.781 126.705L68.5884 118.159C65.6942 119.917 62.3684 120.841 58.4716 120.841V130.841ZM73.781 126.705C78.2799 123.971 81.8277 120.246 84.3748 115.604L75.6081 110.793C73.8939 113.917 71.5705 116.347 68.5884 118.159L73.781 126.705ZM84.3748 115.604C86.946 110.919 88.1875 105.723 88.1875 100.131H78.1875C78.1875 104.197 77.2983 107.714 75.6081 110.793L84.3748 115.604ZM88.1875 100.131C88.1875 94.5391 86.9462 89.3564 84.3623 84.7053L75.6207 89.5617C77.2981 92.5811 78.1875 96.0632 78.1875 100.131H88.1875ZM84.3851 84.7469C81.8873 80.1487 78.3899 76.4473 73.9472 73.7133L68.7062 82.2299C71.6499 84.0413 73.929 86.4479 75.5979 89.5202L84.3851 84.7469ZM73.9472 73.7133C69.3942 70.9115 64.2568 69.5625 58.6847 69.5625V79.5625C62.5822 79.5625 65.8728 80.4862 68.7062 82.2299L73.9472 73.7133ZM58.6847 69.5625C54.4952 69.5625 50.5162 70.3482 46.8084 71.9703L50.8166 81.1319C53.1694 80.1026 55.7718 79.5625 58.6847 79.5625V69.5625ZM46.7818 71.9821C43.2035 73.5725 40.0411 75.7959 37.322 78.6282L44.5359 85.5536C46.3624 83.651 48.4556 82.1813 50.8432 81.1202L46.7818 71.9821ZM37.2858 78.6664C34.625 81.4971 32.5465 84.7675 31.0456 88.4364L40.301 92.2227C41.3569 89.6416 42.7822 87.4196 44.5721 85.5155L37.2858 78.6664ZM31.0558 88.4115C29.512 92.128 28.7557 96.074 28.7557 100.202H38.7557C38.7557 97.3218 39.2778 94.6863 40.2908 92.2476L31.0558 88.4115ZM28.7557 100.202C28.7557 105.679 30.0094 110.799 32.5684 115.462L41.335 110.651C39.6327 107.549 38.7557 104.099 38.7557 100.202H28.7557ZM32.591 115.503C35.1689 120.099 38.683 123.821 43.0988 126.595L48.4183 118.127C45.4476 116.261 43.0905 113.78 41.3124 110.611L32.591 115.503ZM43.123 126.61C47.7151 129.458 52.8788 130.841 58.4716 130.841V120.841C54.5947 120.841 51.283 119.904 48.394 118.112L43.123 126.61Z" fill="#BBBBBB"/>
</svg>
