<svg width="103" height="146" viewBox="0 0 103 146" fill="none" xmlns="http://www.w3.org/2000/svg">
<path d="M10.5426 146L70.8409 26.6818V25.6875H0.599432V0.54545H102.659V26.0426L42.2898 146H10.5426Z" fill="black"/>
<path d="M10.5426 146L6.08008 143.745L2.41363 151H10.5426V146ZM70.8409 26.6818L75.3034 28.937L75.8409 27.8734V26.6818H70.8409ZM70.8409 25.6875H75.8409V20.6875H70.8409V25.6875ZM0.599432 25.6875H-4.40057V30.6875H0.599432V25.6875ZM0.599432 0.54545V-4.45455H-4.40057V0.54545H0.599432ZM102.659 0.54545H107.659V-4.45455H102.659V0.54545ZM102.659 26.0426L107.125 28.2903L107.659 27.2298V26.0426H102.659ZM42.2898 146V151H45.371L46.7561 148.248L42.2898 146ZM15.0051 148.255L75.3034 28.937L66.3784 24.4266L6.08008 143.745L15.0051 148.255ZM75.8409 26.6818V25.6875H65.8409V26.6818H75.8409ZM70.8409 20.6875H0.599432V30.6875H70.8409V20.6875ZM5.59943 25.6875V0.54545H-4.40057V25.6875H5.59943ZM0.599432 5.54545H102.659V-4.45455H0.599432V5.54545ZM97.6591 0.54545V26.0426H107.659V0.54545H97.6591ZM98.1928 23.7949L37.8235 143.752L46.7561 148.248L107.125 28.2903L98.1928 23.7949ZM42.2898 141H10.5426V151H42.2898V141Z" fill="#BBBBBB"/>
</svg>
