<svg width="114" height="150" viewBox="0 0 114 150" fill="none" xmlns="http://www.w3.org/2000/svg">
<path d="M57.0511 149.989C46.1136 149.989 36.3835 148.213 27.8608 144.662C19.3854 141.063 12.733 136.163 7.90341 129.96C3.07386 123.758 0.659091 116.726 0.659091 108.866C0.659091 102.806 2.0322 97.2424 4.77841 92.1761C7.57197 87.0625 11.3598 82.8248 16.142 79.4631C20.9242 76.054 26.2746 73.8759 32.1932 72.929V71.9347C24.428 70.3722 18.1307 66.608 13.3011 60.642C8.47159 54.6288 6.05682 47.6449 6.05682 39.6903C6.05682 32.1619 8.25852 25.4621 12.6619 19.5909C17.0653 13.6723 23.1023 9.03219 30.7727 5.67045C38.4905 2.26136 47.25 0.556813 57.0511 0.556813C66.8523 0.556813 75.5881 2.26136 83.2585 5.67045C90.9763 9.07954 97.0369 13.7434 101.44 19.6619C105.844 25.5331 108.069 32.2093 108.116 39.6903C108.069 47.6922 105.607 54.6761 100.73 60.642C95.8532 66.608 89.6032 70.3722 81.9801 71.9347V72.929C87.804 73.8759 93.0833 76.054 97.8182 79.4631C102.6 82.8248 106.388 87.0625 109.182 92.1761C112.023 97.2424 113.467 102.806 113.514 108.866C113.467 116.726 111.028 123.758 106.199 129.96C101.369 136.163 94.6932 141.063 86.1705 144.662C77.6951 148.213 67.9886 149.989 57.0511 149.989ZM57.0511 127.403C61.928 127.403 66.1894 126.527 69.8352 124.776C73.4811 122.976 76.322 120.514 78.358 117.389C80.4413 114.217 81.483 110.571 81.483 106.452C81.483 102.238 80.4176 98.5208 78.2869 95.3011C76.1563 92.0341 73.268 89.4773 69.6222 87.6307C65.9763 85.7367 61.786 84.7898 57.0511 84.7898C52.3636 84.7898 48.1733 85.7367 44.4801 87.6307C40.7869 89.4773 37.875 92.0341 35.7443 95.3011C33.661 98.5208 32.6193 102.238 32.6193 106.452C32.6193 110.571 33.6373 114.217 35.6733 117.389C37.7093 120.514 40.5739 122.976 44.267 124.776C47.9602 126.527 52.2216 127.403 57.0511 127.403ZM57.0511 62.4176C61.1231 62.4176 64.7453 61.589 67.9176 59.9318C71.09 58.2746 73.5758 55.9782 75.375 53.0426C77.1742 50.107 78.0739 46.7216 78.0739 42.8864C78.0739 39.0985 77.1742 35.7841 75.375 32.9432C73.5758 30.0549 71.1136 27.8059 67.9886 26.196C64.8636 24.5388 61.2178 23.7102 57.0511 23.7102C52.9318 23.7102 49.286 24.5388 46.1136 26.196C42.9413 27.8059 40.4555 30.0549 38.6562 32.9432C36.9044 35.7841 36.0284 39.0985 36.0284 42.8864C36.0284 46.7216 36.928 50.107 38.7273 53.0426C40.5265 55.9782 43.0123 58.2746 46.1847 59.9318C49.357 61.589 52.9792 62.4176 57.0511 62.4176Z" fill="black"/>
<path d="M27.8608 144.662L25.9067 149.264L25.9222 149.271L25.9377 149.277L27.8608 144.662ZM7.90341 129.96L3.95827 133.032L7.90341 129.96ZM4.77841 92.1761L0.390485 89.779L0.386564 89.7862L0.382667 89.7934L4.77841 92.1761ZM16.142 79.4631L19.0175 83.5535L19.031 83.544L19.0444 83.5345L16.142 79.4631ZM32.1932 72.929L32.9831 77.8662L37.1932 77.1926V72.929H32.1932ZM32.1932 71.9347H37.1932V67.8405L33.1795 67.0329L32.1932 71.9347ZM13.3011 60.642L9.40279 63.773L9.40884 63.7805L9.41491 63.788L13.3011 60.642ZM12.6619 19.5909L16.6619 22.5909L16.6677 22.5832L16.6735 22.5755L12.6619 19.5909ZM30.7727 5.67045L32.7798 10.2499L32.7864 10.247L32.793 10.2441L30.7727 5.67045ZM83.2585 5.67045L81.2278 10.2395L81.2383 10.2441L83.2585 5.67045ZM101.44 19.6619L97.4288 22.6465L97.4346 22.6542L97.4403 22.6619L101.44 19.6619ZM108.116 39.6903L113.116 39.7199L113.117 39.6893L113.116 39.6587L108.116 39.6903ZM100.73 60.642L96.859 57.4775L96.859 57.4775L100.73 60.642ZM81.9801 71.9347L80.9761 67.0365L76.9801 67.8556V71.9347H81.9801ZM81.9801 72.929H76.9801V77.1816L81.1776 77.8642L81.9801 72.929ZM97.8182 79.4631L94.8967 83.5207L94.9196 83.5373L94.9427 83.5535L97.8182 79.4631ZM109.182 92.1761L104.794 94.5732L104.807 94.5975L104.821 94.6216L109.182 92.1761ZM113.514 108.866L118.514 108.897L118.514 108.862L118.514 108.827L113.514 108.866ZM106.199 129.96L102.254 126.888L102.254 126.888L106.199 129.96ZM86.1705 144.662L88.1027 149.274L88.1153 149.268L86.1705 144.662ZM69.8352 124.776L72.0008 129.282L72.0244 129.271L72.048 129.259L69.8352 124.776ZM78.358 117.389L74.1786 114.645L74.1736 114.652L74.1686 114.66L78.358 117.389ZM78.2869 95.3011L74.0989 98.0325L74.108 98.0465L74.1173 98.0605L78.2869 95.3011ZM69.6222 87.6307L67.3172 92.0677L67.34 92.0796L67.363 92.0912L69.6222 87.6307ZM44.4801 87.6307L46.7162 92.1028L46.739 92.0914L46.7617 92.0798L44.4801 87.6307ZM35.7443 95.3011L31.5563 92.5698L31.5514 92.5773L31.5465 92.5849L35.7443 95.3011ZM35.6733 117.389L31.4654 120.09L31.4746 120.104L31.484 120.119L35.6733 117.389ZM44.267 124.776L42.0772 129.271L42.1006 129.282L42.1241 129.293L44.267 124.776ZM67.9176 59.9318L65.6025 55.5001L65.6025 55.5001L67.9176 59.9318ZM75.375 53.0426L71.112 50.4298L71.112 50.4298L75.375 53.0426ZM75.375 32.9432L71.1311 35.5869L71.1409 35.6027L71.1509 35.6184L75.375 32.9432ZM67.9886 26.196L65.6461 30.6133L65.6724 30.6273L65.6989 30.6409L67.9886 26.196ZM46.1136 26.196L48.3763 30.6548L48.4026 30.6414L48.4287 30.6278L46.1136 26.196ZM38.6562 32.9432L34.4124 30.2994L34.4064 30.3091L34.4004 30.3187L38.6562 32.9432ZM38.7273 53.0426L34.4643 55.6554L34.4643 55.6554L38.7273 53.0426ZM46.1847 59.9318L48.4998 55.5001L48.4998 55.5001L46.1847 59.9318ZM57.0511 144.989C46.654 144.989 37.5957 143.301 29.7839 140.047L25.9377 149.277C35.1714 153.125 45.5733 154.989 57.0511 154.989V144.989ZM29.8149 140.06C21.9877 136.736 16.0723 132.313 11.8485 126.888L3.95827 133.032C9.39366 140.013 16.7831 145.391 25.9067 149.264L29.8149 140.06ZM11.8485 126.888C7.70253 121.564 5.65909 115.613 5.65909 108.866H-4.34091C-4.34091 117.839 -1.5548 125.952 3.95827 133.032L11.8485 126.888ZM5.65909 108.866C5.65909 103.594 6.84518 98.8554 9.17415 94.5589L0.382667 89.7934C-2.78078 95.6294 -4.34091 102.018 -4.34091 108.866H5.65909ZM9.16633 94.5732C11.591 90.1348 14.8606 86.4757 19.0175 83.5535L13.2666 75.3726C7.85914 79.1739 3.5529 83.9902 0.390485 89.779L9.16633 94.5732ZM19.0444 83.5345C23.1854 80.5825 27.8098 78.6939 32.9831 77.8662L31.4032 67.9918C24.7394 69.058 18.6631 71.5255 13.2397 75.3917L19.0444 83.5345ZM37.1932 72.929V71.9347H27.1932V72.929H37.1932ZM33.1795 67.0329C26.5163 65.6921 21.2592 62.5259 17.1874 57.4961L9.41491 63.788C15.0022 70.69 22.3398 75.0522 31.2069 76.8364L33.1795 67.0329ZM17.1995 57.5111C13.1068 52.4153 11.0568 46.5449 11.0568 39.6903H1.05682C1.05682 48.7448 3.83637 56.8423 9.40279 63.773L17.1995 57.5111ZM11.0568 39.6903C11.0568 33.2138 12.9254 27.5729 16.6619 22.5909L8.66193 16.5909C3.59162 23.3513 1.05682 31.1101 1.05682 39.6903H11.0568ZM16.6735 22.5755C20.4916 17.4435 25.7953 13.3111 32.7798 10.2499L28.7657 1.09096C20.4093 4.75333 13.6391 9.90116 8.65041 16.6063L16.6735 22.5755ZM32.793 10.2441C39.7797 7.15797 47.8342 5.55681 57.0511 5.55681V-4.44319C46.6658 -4.44319 37.2014 -2.63525 28.7525 1.09678L32.793 10.2441ZM57.0511 5.55681C66.2688 5.55681 74.2949 7.15821 81.2278 10.2395L85.2892 1.10139C76.8812 -2.6355 67.4357 -4.44319 57.0511 -4.44319V5.55681ZM81.2383 10.2441C88.2813 13.3552 93.6111 17.5151 97.4288 22.6465L105.452 16.6773C100.463 9.97163 93.6713 4.8039 85.2788 1.09678L81.2383 10.2441ZM97.4403 22.6619C101.188 27.6586 103.076 33.2896 103.117 39.722L113.116 39.6587C113.062 31.129 110.5 23.4077 105.44 16.6619L97.4403 22.6619ZM103.117 39.6608C103.076 46.567 100.983 52.433 96.859 57.4775L104.601 63.8066C110.231 56.9193 113.063 48.8175 113.116 39.7199L103.117 39.6608ZM96.859 57.4775C92.7178 62.5435 87.4847 65.7024 80.9761 67.0365L82.9841 76.8328C91.7217 75.0419 98.9887 70.6724 104.601 63.8066L96.859 57.4775ZM76.9801 71.9347V72.929H86.9801V71.9347H76.9801ZM81.1776 77.8642C86.2457 78.6882 90.798 80.5697 94.8967 83.5207L100.74 75.4054C95.3687 71.5383 89.3623 69.0637 82.7826 67.9938L81.1776 77.8642ZM94.9427 83.5535C99.0997 86.4757 102.369 90.1348 104.794 94.5732L113.57 89.779C110.407 83.9902 106.101 79.1739 100.694 75.3726L94.9427 83.5535ZM104.821 94.6216C107.231 98.92 108.473 103.65 108.514 108.906L118.514 108.827C118.46 101.962 116.814 95.5648 113.543 89.7306L104.821 94.6216ZM108.514 108.836C108.474 115.594 106.406 121.556 102.254 126.888L110.144 133.032C115.651 125.96 118.46 117.859 118.514 108.897L108.514 108.836ZM102.254 126.888C98.0348 132.307 92.1012 136.73 84.2256 140.056L88.1153 149.268C97.2852 145.396 104.704 140.019 110.144 133.032L102.254 126.888ZM84.2382 140.05C76.4795 143.301 67.4491 144.989 57.0511 144.989V154.989C68.5282 154.989 78.9106 153.125 88.1027 149.273L84.2382 140.05ZM57.0511 132.403C62.5258 132.403 67.5544 131.419 72.0008 129.282L67.6697 120.269C64.8244 121.636 61.3303 122.403 57.0511 122.403V132.403ZM72.048 129.259C76.4233 127.1 79.9781 124.062 82.5473 120.119L74.1686 114.66C72.6658 116.966 70.5388 118.853 67.6225 120.292L72.048 129.259ZM82.5373 120.134C85.2018 116.077 86.483 111.459 86.483 106.452H76.483C76.483 109.683 75.6808 112.357 74.1786 114.645L82.5373 120.134ZM86.483 106.452C86.483 101.35 85.1783 96.6546 82.4566 92.5418L74.1173 98.0605C75.6569 100.387 76.483 103.125 76.483 106.452H86.483ZM82.475 92.5698C79.8411 88.5312 76.2719 85.394 71.8814 83.1702L67.363 92.0912C70.2641 93.5606 72.4714 95.537 74.0989 98.0325L82.475 92.5698ZM71.9271 83.1937C67.4676 80.877 62.4654 79.7898 57.0511 79.7898V89.7898C61.1065 89.7898 64.485 90.5964 67.3172 92.0677L71.9271 83.1937ZM57.0511 79.7898C51.6738 79.7898 46.6846 80.8811 42.1985 83.1816L46.7617 92.0798C49.662 90.5924 53.0534 89.7898 57.0511 89.7898V79.7898ZM42.244 83.1585C37.8056 85.3778 34.2003 88.5156 31.5563 92.5698L39.9324 98.0325C41.5497 95.5526 43.7682 93.5768 46.7162 92.1028L42.244 83.1585ZM31.5465 92.5849C28.8883 96.693 27.6193 101.373 27.6193 106.452H37.6193C37.6193 103.103 38.4337 100.349 39.9422 98.0174L31.5465 92.5849ZM27.6193 106.452C27.6193 111.436 28.8645 116.037 31.4654 120.09L39.8812 114.689C38.4101 112.396 37.6193 109.706 37.6193 106.452H27.6193ZM31.484 120.119C34.0635 124.078 37.655 127.116 42.0772 129.271L46.4569 120.281C43.4927 118.837 41.355 116.951 39.8626 114.66L31.484 120.119ZM42.1241 129.293C46.5979 131.415 51.6137 132.403 57.0511 132.403V122.403C52.8295 122.403 49.3226 121.64 46.41 120.258L42.1241 129.293ZM57.0511 67.4176C61.8173 67.4176 66.2527 66.4427 70.2327 64.3636L65.6025 55.5001C63.2379 56.7353 60.4289 57.4176 57.0511 57.4176V67.4176ZM70.2327 64.3636C74.1738 62.3048 77.3468 59.3937 79.638 55.6554L71.112 50.4298C69.8047 52.5628 68.0061 54.2445 65.6025 55.5001L70.2327 64.3636ZM79.638 55.6554C81.9727 51.8462 83.0739 47.5357 83.0739 42.8864H73.0739C73.0739 45.9074 72.3758 48.3678 71.112 50.4298L79.638 55.6554ZM83.0739 42.8864C83.0739 38.2745 81.9673 34.0072 79.5991 30.2679L71.1509 35.6184C72.3812 37.561 73.0739 39.9225 73.0739 42.8864H83.0739ZM79.6189 30.2994C77.3264 26.6194 74.1776 23.7598 70.2784 21.7511L65.6989 30.6409C68.0497 31.8519 69.8251 33.4904 71.1311 35.5869L79.6189 30.2994ZM70.3312 21.7787C66.3663 19.6762 61.8892 18.7102 57.0511 18.7102V28.7102C60.5464 28.7102 63.3609 29.4015 65.6461 30.6133L70.3312 21.7787ZM57.0511 18.7102C52.248 18.7102 47.7866 19.681 43.7985 21.7643L48.4287 30.6278C50.7854 29.3967 53.6157 28.7102 57.0511 28.7102V18.7102ZM43.851 21.7373C39.9037 23.7404 36.7165 26.6007 34.4124 30.2994L42.9001 35.5869C44.1945 33.5091 45.9789 31.8713 48.3763 30.6548L43.851 21.7373ZM34.4004 30.3187C32.0989 34.0509 31.0284 38.2997 31.0284 42.8864H41.0284C41.0284 39.8973 41.7098 37.5173 42.9121 35.5676L34.4004 30.3187ZM31.0284 42.8864C31.0284 47.5357 32.1296 51.8462 34.4643 55.6554L42.9903 50.4298C41.7265 48.3678 41.0284 45.9074 41.0284 42.8864H31.0284ZM34.4643 55.6554C36.7555 59.3937 39.9285 62.3048 43.8696 64.3636L48.4998 55.5001C46.0962 54.2445 44.2976 52.5627 42.9903 50.4298L34.4643 55.6554ZM43.8696 64.3636C47.8496 66.4427 52.285 67.4176 57.0511 67.4176V57.4176C53.6734 57.4176 50.8644 56.7353 48.4998 55.5001L43.8696 64.3636Z" fill="#BBBBBB"/>
</svg>
