<svg width="113" height="150" viewBox="0 0 113 150" fill="none" xmlns="http://www.w3.org/2000/svg">
<path d="M54.4176 0.556813C61.8987 0.556813 69.0956 1.81155 76.0085 4.32101C82.9688 6.83049 89.1714 10.8314 94.6165 16.3239C100.109 21.8163 104.441 29.108 107.614 38.1989C110.833 47.2424 112.467 58.3456 112.514 71.5085C112.514 83.8665 111.117 94.8987 108.324 104.605C105.578 114.264 101.624 122.479 96.4631 129.25C91.3021 136.021 85.0758 141.182 77.7841 144.733C70.4924 148.237 62.3485 149.989 53.3523 149.989C43.6458 149.989 35.0758 148.118 27.642 144.378C20.2083 140.59 14.2188 135.453 9.6733 128.966C5.17519 122.432 2.45265 115.093 1.50568 106.949H31.8324C33.0161 112.252 35.5019 116.371 39.2898 119.307C43.0777 122.195 47.7652 123.639 53.3523 123.639C62.822 123.639 70.0189 119.52 74.9432 111.281C79.8674 102.995 82.3532 91.6553 82.4006 77.2614H81.4062C79.2282 81.5227 76.2926 85.1922 72.5994 88.2699C68.9063 91.3002 64.6686 93.6439 59.8864 95.3011C55.1515 96.9583 50.1089 97.7869 44.7585 97.7869C36.1884 97.7869 28.5417 95.7746 21.8182 91.75C15.0947 87.7254 9.79167 82.1856 5.90909 75.1307C2.02652 68.0758 0.0852273 60.0265 0.0852273 50.983C0.0378789 41.2292 2.28693 32.5407 6.83239 24.9176C11.3778 17.2945 17.7225 11.3286 25.8665 7.01989C34.0578 2.66382 43.5748 0.509463 54.4176 0.556813ZM54.6307 24.7045C49.8485 24.7045 45.5871 25.8409 41.8466 28.1136C38.1534 30.3864 35.2178 33.4403 33.0398 37.2756C30.9091 41.1108 29.8674 45.3958 29.9148 50.1307C29.9148 54.9129 30.9564 59.2216 33.0398 63.0568C35.1705 66.8447 38.0587 69.875 41.7045 72.1477C45.3977 74.3731 49.6117 75.4858 54.3466 75.4858C57.8977 75.4858 61.1884 74.8229 64.2188 73.4972C67.2491 72.1714 69.8769 70.3485 72.1023 68.0284C74.375 65.661 76.1506 62.9384 77.429 59.8608C78.7074 56.7831 79.3466 53.5161 79.3466 50.0597C79.2992 45.4669 78.2102 41.2528 76.0795 37.4176C73.9489 33.5824 71.0133 30.5047 67.2727 28.1847C63.5322 25.8646 59.3182 24.7045 54.6307 24.7045Z" fill="black"/>
<path d="M54.4176 0.556813L54.3958 5.55677L54.4067 5.55681H54.4176V0.556813ZM76.0085 4.32101L74.3024 9.02093L74.3127 9.02463L76.0085 4.32101ZM94.6165 16.3239L91.0657 19.8441L91.0733 19.8517L91.0809 19.8594L94.6165 16.3239ZM107.614 38.1989L102.893 39.8462L102.898 39.8611L102.903 39.8759L107.614 38.1989ZM112.514 71.5085H117.514V71.4995L117.514 71.4905L112.514 71.5085ZM108.324 104.605L103.519 103.222L103.517 103.23L103.514 103.238L108.324 104.605ZM96.4631 129.25L100.44 132.281L100.44 132.281L96.4631 129.25ZM77.7841 144.733L79.9497 149.24L79.9615 149.234L79.9733 149.228L77.7841 144.733ZM27.642 144.378L25.372 148.833L25.3833 148.839L25.3946 148.844L27.642 144.378ZM9.6733 128.966L5.55483 131.801L5.56661 131.818L5.57854 131.835L9.6733 128.966ZM1.50568 106.949V101.949H-4.1094L-3.46085 107.526L1.50568 106.949ZM31.8324 106.949L36.7123 105.86L35.8394 101.949H31.8324V106.949ZM39.2898 119.307L36.2269 123.259L36.2424 123.271L36.2581 123.283L39.2898 119.307ZM74.9432 111.281L79.235 113.846L79.2415 113.836L74.9432 111.281ZM82.4006 77.2614L87.4005 77.2778L87.417 72.2614H82.4006V77.2614ZM81.4062 77.2614V72.2614H78.3466L76.9541 74.9858L81.4062 77.2614ZM72.5994 88.2699L75.771 92.1353L75.7857 92.1232L75.8004 92.111L72.5994 88.2699ZM59.8864 95.3011L58.2492 90.5768L58.2419 90.5793L58.2346 90.5818L59.8864 95.3011ZM21.8182 91.75L19.2501 96.0401L19.2501 96.0401L21.8182 91.75ZM5.90909 75.1307L1.52863 77.5414L1.52863 77.5414L5.90909 75.1307ZM0.0852273 50.983H5.08523V50.9708L5.08517 50.9587L0.0852273 50.983ZM6.83239 24.9176L11.1269 27.4783L11.1269 27.4783L6.83239 24.9176ZM25.8665 7.01989L28.2047 11.4395L28.2141 11.4345L25.8665 7.01989ZM41.8466 28.1136L39.2503 23.8406L39.2382 23.8479L39.2261 23.8553L41.8466 28.1136ZM33.0398 37.2756L28.692 34.8064L28.6804 34.8268L28.669 34.8473L33.0398 37.2756ZM29.9148 50.1307H34.9148V50.1057L34.9145 50.0807L29.9148 50.1307ZM33.0398 63.0568L28.6462 65.4435L28.6638 65.4759L28.6819 65.5081L33.0398 63.0568ZM41.7045 72.1477L39.0595 76.3908L39.0916 76.4108L39.124 76.4303L41.7045 72.1477ZM64.2188 73.4972L62.2147 68.9164L62.2147 68.9164L64.2188 73.4972ZM72.1023 68.0284L68.4953 64.5657L68.4939 64.5673L72.1023 68.0284ZM77.429 59.8608L82.0465 61.7788L82.0465 61.7788L77.429 59.8608ZM79.3466 50.0597H84.3466V50.0339L84.3463 50.0081L79.3466 50.0597ZM76.0795 37.4176L80.4503 34.9894L80.4503 34.9894L76.0795 37.4176ZM67.2727 28.1847L69.9082 23.9356L69.9082 23.9356L67.2727 28.1847ZM54.4176 5.55681C61.3271 5.55681 67.946 6.71345 74.3024 9.02092L77.7147 -0.378894C70.2453 -3.09036 62.4703 -4.44319 54.4176 -4.44319V5.55681ZM74.3127 9.02463C80.5426 11.2708 86.1191 14.8544 91.0657 19.8441L98.1673 12.8037C92.2238 6.80845 85.3949 2.39017 77.7044 -0.382607L74.3127 9.02463ZM91.0809 19.8594C95.9293 24.7077 99.9104 31.2995 102.893 39.8462L112.334 36.5515C108.972 26.9164 104.289 18.9249 98.152 12.7883L91.0809 19.8594ZM102.903 39.8759C105.877 48.2297 107.468 58.7341 107.514 71.5265L117.514 71.4905C117.465 57.9572 115.789 46.2551 112.324 36.5219L102.903 39.8759ZM107.514 71.5085C107.514 83.4989 106.158 94.0525 103.519 103.222L113.129 105.988C116.077 95.7449 117.514 84.2341 117.514 71.5085H107.514ZM103.514 103.238C100.909 112.401 97.2068 120.026 92.4866 126.219L100.44 132.281C106.041 124.932 110.246 116.127 113.133 105.972L103.514 103.238ZM92.4866 126.219C87.7746 132.401 82.1496 137.045 75.5949 140.238L79.9733 149.228C88.0019 145.318 94.8295 139.641 100.44 132.281L92.4866 126.219ZM75.6185 140.226C69.0751 143.37 61.6836 144.989 53.3523 144.989V154.989C63.0134 154.989 71.9098 153.103 79.9497 149.24L75.6185 140.226ZM53.3523 144.989C44.2966 144.989 36.5187 143.247 29.8895 139.911L25.3946 148.844C33.6329 152.99 42.995 154.989 53.3523 154.989V144.989ZM29.9121 139.923C23.167 136.486 17.8189 131.878 13.7681 126.097L5.57854 131.835C10.6186 139.028 17.2496 144.694 25.372 148.833L29.9121 139.923ZM13.7918 126.131C9.77216 120.292 7.32823 113.733 6.47222 106.371L-3.46085 107.526C-2.42292 116.453 0.578216 124.572 5.55483 131.801L13.7918 126.131ZM1.50568 111.949H31.8324V101.949H1.50568V111.949ZM26.9525 108.038C28.354 114.317 31.3958 119.515 36.2269 123.259L42.3526 115.355C39.608 113.228 37.6782 110.187 36.7123 105.86L26.9525 108.038ZM36.2581 123.283C41.0614 126.945 46.8663 128.639 53.3523 128.639V118.639C48.664 118.639 45.0939 117.445 42.3215 115.331L36.2581 123.283ZM53.3523 128.639C64.6105 128.639 73.4232 123.57 79.235 113.846L70.6514 108.716C66.6147 115.47 61.0335 118.639 53.3523 118.639V128.639ZM79.2415 113.836C84.7937 104.493 87.3516 92.1557 87.4005 77.2778L77.4006 77.2449C77.3548 91.1549 74.9411 101.498 70.6449 108.727L79.2415 113.836ZM82.4006 72.2614H81.4062V82.2614H82.4006V72.2614ZM76.9541 74.9858C75.0846 78.6434 72.5757 81.7812 69.3985 84.4288L75.8004 92.111C80.0096 88.6033 83.3718 84.402 85.8584 79.5369L76.9541 74.9858ZM69.4279 84.4045C66.218 87.0383 62.5067 89.1014 58.2492 90.5768L61.5235 100.026C66.8305 98.1865 71.5945 95.5621 75.771 92.1353L69.4279 84.4045ZM58.2346 90.5818C54.065 92.0412 49.5841 92.7869 44.7585 92.7869V102.787C50.6337 102.787 56.238 101.875 61.5381 100.02L58.2346 90.5818ZM44.7585 92.7869C37.0055 92.7869 30.2619 90.977 24.3862 87.4599L19.2501 96.0401C26.8214 100.572 35.3714 102.787 44.7585 102.787V92.7869ZM24.3862 87.4599C18.4444 83.9031 13.7575 79.0214 10.2895 72.72L1.52863 77.5414C5.82586 85.3498 11.745 91.5476 19.2501 96.0401L24.3862 87.4599ZM10.2895 72.72C6.86139 66.4907 5.08523 59.289 5.08523 50.983H-4.91477C-4.91477 60.764 -2.80836 69.6608 1.52863 77.5414L10.2895 72.72ZM5.08517 50.9587C5.04179 42.0218 7.09277 34.2439 11.1269 27.4783L2.53788 22.3569C-2.5189 30.8376 -4.96603 40.4365 -4.91471 51.0072L5.08517 50.9587ZM11.1269 27.4783C15.1846 20.6733 20.8386 15.3367 28.2047 11.4395L23.5282 2.60032C14.6065 7.32053 7.57112 13.9157 2.53788 22.3569L11.1269 27.4783ZM28.2141 11.4345C35.5619 7.527 44.2392 5.51241 54.3958 5.55677L54.4395 -4.44314C42.9104 -4.49349 32.5537 -2.19936 23.5188 2.6053L28.2141 11.4345ZM54.6307 19.7045C49.0205 19.7045 43.845 21.0488 39.2503 23.8406L44.4429 32.3867C47.3292 30.633 50.6765 29.7045 54.6307 29.7045V19.7045ZM39.2261 23.8553C34.803 26.5773 31.2785 30.2519 28.692 34.8064L37.3876 39.7447C39.1571 36.6287 41.5039 34.1954 44.4671 32.3719L39.2261 23.8553ZM28.669 34.8473C26.0843 39.4998 24.8597 44.65 24.915 50.1807L34.9145 50.0807C34.8751 46.1416 35.7339 42.7218 37.4106 39.7038L28.669 34.8473ZM24.9148 50.1307C24.9148 55.6649 26.1277 60.8072 28.6462 65.4435L37.4334 60.6702C35.7852 57.636 34.9148 54.1608 34.9148 50.1307H24.9148ZM28.6819 65.5081C31.2191 70.0187 34.6928 73.6687 39.0595 76.3908L44.3496 67.9046C41.4246 66.0813 39.1218 63.6707 37.3977 60.6055L28.6819 65.5081ZM39.124 76.4303C43.6713 79.1704 48.7944 80.4858 54.3466 80.4858V70.4858C50.4291 70.4858 47.1241 69.5758 44.2851 67.8651L39.124 76.4303ZM54.3466 80.4858C58.536 80.4858 62.5151 79.7001 66.2228 78.0779L62.2147 68.9164C59.8618 69.9457 57.2594 70.4858 54.3466 70.4858V80.4858ZM66.2228 78.0779C69.8386 76.496 73.0162 74.2987 75.7107 71.4895L68.4939 64.5673C66.7376 66.3983 64.6595 67.8468 62.2147 68.9164L66.2228 78.0779ZM75.7092 71.4911C78.4185 68.6689 80.5338 65.4205 82.0465 61.7788L72.8115 57.9428C71.7674 60.4564 70.3315 62.6531 68.4953 64.5657L75.7092 71.4911ZM82.0465 61.7788C83.5868 58.0706 84.3466 54.1494 84.3466 50.0597H74.3466C74.3466 52.8828 73.828 55.4957 72.8115 57.9428L82.0465 61.7788ZM84.3463 50.0081C84.2908 44.6235 83.0044 39.5867 80.4503 34.9894L71.7088 39.8458C73.4161 42.919 74.3077 46.3102 74.3469 50.1112L84.3463 50.0081ZM80.4503 34.9894C77.9044 30.4067 74.3704 26.7033 69.9082 23.9356L64.6372 32.4337C67.6561 34.3061 69.9933 36.758 71.7088 39.8458L80.4503 34.9894ZM69.9082 23.9356C65.3243 21.0924 60.1864 19.7045 54.6307 19.7045V29.7045C58.45 29.7045 61.7401 30.6367 64.6373 32.4337L69.9082 23.9356Z" fill="#BBBBBB"/>
</svg>
